<?xml version="1.0" encoding="UTF-8" standalone="no"?>
<!DOCTYPE svg PUBLIC "-//W3C//DTD SVG 1.1//EN"
 "http://www.w3.org/Graphics/SVG/1.1/DTD/svg11.dtd">
<!-- Generated by graphviz version 2.42.4 (0)
 -->
<!-- Title: G Pages: 1 -->
<svg width="1238pt" height="161pt"
 viewBox="0.00 0.00 1238.40 161.40" xmlns="http://www.w3.org/2000/svg" xmlns:xlink="http://www.w3.org/1999/xlink">
<g id="graph0" class="graph" transform="scale(1 1) rotate(0) translate(25.2 136.2)">
<title>G</title>
<polygon fill="#0b1020" stroke="transparent" points="-25.2,25.2 -25.2,-136.2 1213.2,-136.2 1213.2,25.2 -25.2,25.2"/>
<!-- source -->
<g id="node1" class="node">
<title>source</title>
<path fill="#1e5a55" stroke="#7d879c" stroke-width="1.2" d="M129,-75C129,-75 12,-75 12,-75 6,-75 0,-69 0,-63 0,-63 0,-47 0,-47 0,-41 6,-35 12,-35 12,-35 129,-35 129,-35 135,-35 141,-41 141,-47 141,-47 141,-63 141,-63 141,-69 135,-75 129,-75"/>
<text text-anchor="middle" x="70.5" y="-58.2" font-family="Arial" font-size="11.00" fill="#f7f2e8">External source</text>
<text text-anchor="middle" x="70.5" y="-46.2" font-family="Arial" font-size="11.00" fill="#f7f2e8">IMD / weather / geodata</text>
</g>
<!-- raw -->
<g id="node2" class="node">
<title>raw</title>
<path fill="#151c2f" stroke="#7d879c" stroke-width="1.2" d="M293,-75C293,-75 193,-75 193,-75 187,-75 181,-69 181,-63 181,-63 181,-47 181,-47 181,-41 187,-35 193,-35 193,-35 293,-35 293,-35 299,-35 305,-41 305,-47 305,-47 305,-63 305,-63 305,-69 299,-75 293,-75"/>
<text text-anchor="middle" x="243" y="-58.2" font-family="Arial" font-size="11.00" fill="#f7f2e8">Raw snapshot</text>
<text text-anchor="middle" x="243" y="-46.2" font-family="Arial" font-size="11.00" fill="#f7f2e8">source + timestamps</text>
</g>
<!-- source&#45;&gt;raw -->
<g id="edge1" class="edge">
<title>source&#45;&gt;raw</title>
<path fill="none" stroke="#f6a43c" stroke-width="1.4" d="M141.34,-55C151.95,-55 162.89,-55 173.47,-55"/>
<polygon fill="#f6a43c" stroke="#f6a43c" stroke-width="1.4" points="173.73,-57.45 180.73,-55 173.73,-52.55 173.73,-57.45"/>
</g>
<!-- hash -->
<g id="node3" class="node">
<title>hash</title>
<path fill="#151c2f" stroke="#7d879c" stroke-width="1.2" d="M425.5,-108C425.5,-108 379.5,-108 379.5,-108 373.5,-108 367.5,-102 367.5,-96 367.5,-96 367.5,-84 367.5,-84 367.5,-78 373.5,-72 379.5,-72 379.5,-72 425.5,-72 425.5,-72 431.5,-72 437.5,-78 437.5,-84 437.5,-84 437.5,-96 437.5,-96 437.5,-102 431.5,-108 425.5,-108"/>
<text text-anchor="middle" x="402.5" y="-87.2" font-family="Arial" font-size="11.00" fill="#f7f2e8">SHA&#45;256</text>
</g>
<!-- raw&#45;&gt;hash -->
<g id="edge2" class="edge">
<title>raw&#45;&gt;hash</title>
<path fill="none" stroke="#f6a43c" stroke-width="1.4" d="M305.34,-68.63C323.79,-72.73 343.57,-77.13 360.36,-80.86"/>
<polygon fill="#f6a43c" stroke="#f6a43c" stroke-width="1.4" points="360,-83.29 367.37,-82.41 361.07,-78.5 360,-83.29"/>
</g>
<!-- norm -->
<g id="node4" class="node">
<title>norm</title>
<path fill="#151c2f" stroke="#7d879c" stroke-width="1.2" d="M448,-40C448,-40 357,-40 357,-40 351,-40 345,-34 345,-28 345,-28 345,-12 345,-12 345,-6 351,0 357,0 357,0 448,0 448,0 454,0 460,-6 460,-12 460,-12 460,-28 460,-28 460,-34 454,-40 448,-40"/>
<text text-anchor="middle" x="402.5" y="-23.2" font-family="Arial" font-size="11.00" fill="#f7f2e8">Normalized artifact</text>
<text text-anchor="middle" x="402.5" y="-11.2" font-family="Arial" font-size="11.00" fill="#f7f2e8">parser version</text>
</g>
<!-- raw&#45;&gt;norm -->
<g id="edge4" class="edge">
<title>raw&#45;&gt;norm</title>
<path fill="none" stroke="#f6a43c" stroke-width="1.4" d="M305.34,-41.37C316.04,-38.99 327.19,-36.51 337.95,-34.12"/>
<polygon fill="#f6a43c" stroke="#f6a43c" stroke-width="1.4" points="338.65,-36.48 344.95,-32.57 337.59,-31.69 338.65,-36.48"/>
</g>
<!-- manifest -->
<g id="node5" class="node">
<title>manifest</title>
<path fill="#502a20" stroke="#f26b38" stroke-width="1.2" d="M613,-75C613,-75 512,-75 512,-75 506,-75 500,-69 500,-63 500,-63 500,-47 500,-47 500,-41 506,-35 512,-35 512,-35 613,-35 613,-35 619,-35 625,-41 625,-47 625,-47 625,-63 625,-63 625,-69 619,-75 613,-75"/>
<text text-anchor="middle" x="562.5" y="-58.2" font-family="Arial" font-size="11.00" fill="#f7f2e8">Replay Manifest</text>
<text text-anchor="middle" x="562.5" y="-46.2" font-family="Arial" font-size="11.00" fill="#f7f2e8">all hashes + versions</text>
</g>
<!-- hash&#45;&gt;manifest -->
<g id="edge3" class="edge">
<title>hash&#45;&gt;manifest</title>
<path fill="none" stroke="#f6a43c" stroke-width="1.4" d="M437.78,-82.41C453.95,-78.82 473.84,-74.42 492.91,-70.19"/>
<polygon fill="#f6a43c" stroke="#f6a43c" stroke-width="1.4" points="493.59,-72.55 499.89,-68.65 492.53,-67.77 493.59,-72.55"/>
</g>
<!-- norm&#45;&gt;manifest -->
<g id="edge5" class="edge">
<title>norm&#45;&gt;manifest</title>
<path fill="none" stroke="#f6a43c" stroke-width="1.4" d="M460.1,-32.54C470.7,-34.89 481.89,-37.37 492.82,-39.79"/>
<polygon fill="#f6a43c" stroke="#f6a43c" stroke-width="1.4" points="492.58,-42.24 499.95,-41.37 493.64,-37.46 492.58,-42.24"/>
</g>
<!-- engine -->
<g id="node6" class="node">
<title>engine</title>
<path fill="#151c2f" stroke="#7d879c" stroke-width="1.2" d="M807,-110C807,-110 677,-110 677,-110 671,-110 665,-104 665,-98 665,-98 665,-82 665,-82 665,-76 671,-70 677,-70 677,-70 807,-70 807,-70 813,-70 819,-76 819,-82 819,-82 819,-98 819,-98 819,-104 813,-110 807,-110"/>
<text text-anchor="middle" x="742" y="-93.2" font-family="Arial" font-size="11.00" fill="#f7f2e8">Canonical Engines</text>
<text text-anchor="middle" x="742" y="-81.2" font-family="Arial" font-size="11.00" fill="#f7f2e8">policy + planner + allocator</text>
</g>
<!-- manifest&#45;&gt;engine -->
<g id="edge6" class="edge">
<title>manifest&#45;&gt;engine</title>
<path fill="none" stroke="#f6a43c" stroke-width="1.4" d="M625.08,-67.14C635.7,-69.24 646.88,-71.44 657.95,-73.62"/>
<polygon fill="#f6a43c" stroke="#f6a43c" stroke-width="1.4" points="657.48,-76.03 664.82,-74.98 658.43,-71.22 657.48,-76.03"/>
</g>
<!-- receipt -->
<g id="node9" class="node">
<title>receipt</title>
<path fill="#151c2f" stroke="#7d879c" stroke-width="1.2" d="M976,-41C976,-41 871,-41 871,-41 865,-41 859,-35 859,-29 859,-29 859,-13 859,-13 859,-7 865,-1 871,-1 871,-1 976,-1 976,-1 982,-1 988,-7 988,-13 988,-13 988,-29 988,-29 988,-35 982,-41 976,-41"/>
<text text-anchor="middle" x="923.5" y="-24.2" font-family="Arial" font-size="11.00" fill="#f7f2e8">Receipt references</text>
<text text-anchor="middle" x="923.5" y="-12.2" font-family="Arial" font-size="11.00" fill="#f7f2e8">source IDs + versions</text>
</g>
<!-- manifest&#45;&gt;receipt -->
<g id="edge10" class="edge">
<title>manifest&#45;&gt;receipt</title>
<path fill="none" stroke="#f6a43c" stroke-width="1.4" d="M625.21,-49.16C688.17,-43.19 785.75,-33.95 851.79,-27.7"/>
<polygon fill="#f6a43c" stroke="#f6a43c" stroke-width="1.4" points="852.14,-30.12 858.88,-27.03 851.68,-25.25 852.14,-30.12"/>
</g>
<!-- metric -->
<g id="node7" class="node">
<title>metric</title>
<path fill="#151c2f" stroke="#7d879c" stroke-width="1.2" d="M956,-109C956,-109 891,-109 891,-109 885,-109 879,-103 879,-97 879,-97 879,-85 879,-85 879,-79 885,-73 891,-73 891,-73 956,-73 956,-73 962,-73 968,-79 968,-85 968,-85 968,-97 968,-97 968,-103 962,-109 956,-109"/>
<text text-anchor="middle" x="923.5" y="-88.2" font-family="Arial" font-size="11.00" fill="#f7f2e8">Output Metric</text>
</g>
<!-- engine&#45;&gt;metric -->
<g id="edge7" class="edge">
<title>engine&#45;&gt;metric</title>
<path fill="none" stroke="#f6a43c" stroke-width="1.4" d="M819.12,-90.42C836.86,-90.52 855.32,-90.63 871.64,-90.72"/>
<polygon fill="#f6a43c" stroke="#f6a43c" stroke-width="1.4" points="871.97,-93.17 878.99,-90.76 872,-88.27 871.97,-93.17"/>
</g>
<!-- engine&#45;&gt;receipt -->
<g id="edge9" class="edge">
<title>engine&#45;&gt;receipt</title>
<path fill="none" stroke="#f6a43c" stroke-width="1.4" d="M795.4,-69.86C816.78,-61.64 841.61,-52.1 863.61,-43.64"/>
<polygon fill="#f6a43c" stroke="#f6a43c" stroke-width="1.4" points="864.69,-45.85 870.34,-41.05 862.93,-41.27 864.69,-45.85"/>
</g>
<!-- badge -->
<g id="node8" class="node">
<title>badge</title>
<path fill="#151c2f" stroke="#7d879c" stroke-width="1.2" d="M1176,-111C1176,-111 1040,-111 1040,-111 1034,-111 1028,-105 1028,-99 1028,-99 1028,-83 1028,-83 1028,-77 1034,-71 1040,-71 1040,-71 1176,-71 1176,-71 1182,-71 1188,-77 1188,-83 1188,-83 1188,-99 1188,-99 1188,-105 1182,-111 1176,-111"/>
<text text-anchor="middle" x="1108" y="-94.2" font-family="Arial" font-size="11.00" fill="#f7f2e8">Evidence Badge</text>
<text text-anchor="middle" x="1108" y="-82.2" font-family="Arial" font-size="11.00" fill="#f7f2e8">MEASURED / SIMULATED</text>
</g>
<!-- metric&#45;&gt;badge -->
<g id="edge8" class="edge">
<title>metric&#45;&gt;badge</title>
<path fill="none" stroke="#f6a43c" stroke-width="1.4" d="M968.21,-91C984.04,-91 1002.51,-91 1020.72,-91"/>
<polygon fill="#f6a43c" stroke="#f6a43c" stroke-width="1.4" points="1020.95,-93.45 1027.95,-91 1020.95,-88.55 1020.95,-93.45"/>
</g>
</g>
</svg>
